<svg width="24" height="24" viewBox="0 0 24 24" fill="none" xmlns="http://www.w3.org/2000/svg">
<g id="Pencil" clip-path="url(#clip0_1619_58)">
<g id="pencil--change-edit-modify-pencil-write-writing">
<path id="Vector" d="M8.57146 20.9829L0.857178 23.1429L3.01718 15.4286L17.1429 1.37146C17.3025 1.20819 17.4933 1.07845 17.7036 0.989878C17.9141 0.901305 18.1403 0.855679 18.3686 0.855679C18.5969 0.855679 18.8231 0.901305 19.0336 0.989878C19.2439 1.07845 19.4347 1.20819 19.5943 1.37146L22.6286 4.42289C22.7892 4.58225 22.9168 4.77187 23.0039 4.98075C23.0909 5.18966 23.1357 5.41373 23.1357 5.64003C23.1357 5.86634 23.0909 6.09041 23.0039 6.29931C22.9168 6.50822 22.7892 6.69782 22.6286 6.85718L8.57146 20.9829Z" stroke="black" stroke-width="1.71429" stroke-linecap="round" stroke-linejoin="round"/>
</g>
</g>
<defs>
<clipPath id="clip0_1619_58">
<rect width="24" height="24" fill="white"/>
</clipPath>
</defs>
</svg>
